<svg width="89" height="72" viewBox="0 0 89 72" fill="none" xmlns="http://www.w3.org/2000/svg">
<path d="M88.052 8.95831C84.8208 10.3896 81.3458 11.3437 77.6791 11.7958C81.4062 9.58331 84.2749 6.05415 85.6208 1.88331C82.1333 3.92706 78.2687 5.42915 74.1583 6.22081C70.8749 2.74165 66.1916 0.583313 61.0041 0.583313C51.0395 0.583313 42.9604 8.58956 42.9604 18.4625C42.9604 19.8604 43.1249 21.2208 43.4312 22.5416C28.4395 21.7896 15.1416 14.6625 6.24577 3.84581C4.68327 6.48956 3.8041 9.58331 3.8041 12.85C3.8041 19.0562 6.98119 24.5208 11.827 27.7396C8.86869 27.65 6.08535 26.8271 3.64785 25.5062C3.64785 25.5604 3.64785 25.6396 3.64785 25.7166C3.64785 34.3896 9.86869 41.6125 18.1145 43.2562C16.6083 43.6687 15.0145 43.8979 13.3729 43.8979C12.2083 43.8979 11.0729 43.7666 9.97285 43.5687C12.2687 50.6562 18.9291 55.8375 26.8208 55.9916C20.6458 60.7791 12.8687 63.6458 4.41244 63.6458C2.95202 63.6458 1.52285 63.5625 0.110352 63.3916C8.1041 68.4521 17.5895 71.4166 27.7729 71.4166C60.9541 71.4166 79.1083 44.1687 79.1083 20.5291C79.1083 19.7541 79.0833 18.9833 79.0478 18.2208C82.5895 15.7187 85.6416 12.5646 88.052 8.95831Z" fill="url(#paint0_linear_211_506)"/>
<defs>
<linearGradient id="paint0_linear_211_506" x1="13.5437" y1="3.31665" x2="76.9958" y2="66.7687" gradientUnits="userSpaceOnUse">
<stop stop-color="#2AA4F4"/>
<stop offset="1" stop-color="#007AD9"/>
</linearGradient>
</defs>
</svg>
